<svg width="27" height="27" viewBox="0 0 27 27" fill="none" xmlns="http://www.w3.org/2000/svg">
<path d="M17.9844 18.2536L19.3209 20.5924H16.6506L15.3144 18.2536H17.9844Z" fill="white"/>
<path d="M12.913 8.7205H8.38509V6.54037H12.913V8.7205Z" fill="white"/>
<path d="M18.4472 8.7205H13.9193V6.54037H18.4472V8.7205Z" fill="white"/>
<path fill-rule="evenodd" clip-rule="evenodd" d="M13.5 0C20.9558 0 27 6.04416 27 13.5C27 20.9558 20.9558 27 13.5 27C6.04416 27 0 20.9558 0 13.5C0 6.04416 6.04416 0 13.5 0ZM14.1641 16.5807L13.3043 18.0859L15.6922 22.2652H20.4711L21.3312 20.7601L18.9434 16.5807H14.1641ZM6.70807 22.1366H13.8714L12.8172 20.2919H8.38509V18.1118H11.5714L12.8172 15.9317H8.38509V14.087H13.8714L14.8298 12.4099H8.38509V10.3975H18.4472V12.4099H20.1242V4.86335H6.70807V22.1366ZM15.6922 13.9068L14.736 15.5791H19.5127L21.902 19.7607L22.859 18.0856L20.4716 13.9068H15.6922Z" fill="white"/>
</svg>
