<?xml version="1.0" encoding="utf-8"?>
<!-- Generator: Adobe Illustrator 24.1.3, SVG Export Plug-In . SVG Version: 6.00 Build 0)  -->
<svg version="1.1" id="Layer_1" xmlns="http://www.w3.org/2000/svg" xmlns:xlink="http://www.w3.org/1999/xlink" x="0px" y="0px"
	 viewBox="0 0 24 24" style="enable-background:new 0 0 24 24;" xml:space="preserve">
<style type="text/css">
	.st0{fill:url(#SVGID_1_);}
	.st1{fill:#4579F0;}
</style>
<linearGradient id="SVGID_1_" gradientUnits="userSpaceOnUse" x1="12" y1="1.88" x2="12" y2="22.12">
	<stop  offset="0" style="stop-color:#2E54EB"/>
	<stop  offset="1" style="stop-color:#66C6D2"/>
</linearGradient>
<path class="st0" d="M24,7.13H11.25v-1.5H24V7.13z M9,6.38c0,2.4853-2.0147,4.5-4.5,4.5S0,8.8653,0,6.38s2.0147-4.5,4.5-4.5
	c0.0067,0,0.0134,0,0.02,0C6.9998,1.8856,9.0056,3.9003,9,6.38z M7.5,6.38c0-1.6569-1.3431-3-3-3s-3,1.3431-3,3s1.3431,3,3,3
	S7.5,8.0369,7.5,6.38z M11.8711,16.88H11.25v1.5h0.6326L11.8711,16.88z M9,17.62c0,2.4853-2.0147,4.5-4.5,4.5S0,20.1053,0,17.62
	s2.0147-4.5,4.5-4.5S9,15.1347,9,17.62z M7.5,17.62c0-1.6569-1.3431-3-3-3s-3,1.3431-3,3s1.3431,3,3,3S7.5,19.2769,7.5,17.62z
	 M4.5,4.88C3.6716,4.88,3,5.5516,3,6.38s0.6716,1.5,1.5,1.5S6,7.2084,6,6.38S5.3284,4.88,4.5,4.88z"/>
<g>
	<polygon class="st1" points="15.9985,17.5987 17.2696,19.8008 19.8124,19.8008 18.541,17.5987 	"/>
	<path class="st1" d="M21.2571,12.9249h-5.4215L13.1248,17.62l2.7108,4.6951h5.4215l2.7108-4.6951L21.2571,12.9249z M20.4481,20.902
		h-3.814l-1.9069-3.3033l0.6356-1.1012l-0.0001-0.0001h3.8145l1.9069,3.3034L20.4481,20.902z M21.7194,18.6994l-1.9069-3.3031
		h-3.8144l0.636-1.1008h3.8143l1.9069,3.3029h-0.0004L21.7194,18.6994z"/>
</g>
</svg>
