<svg width="24" height="24" viewBox="0 0 24 24" fill="none" xmlns="http://www.w3.org/2000/svg">
<g clip-path="url(#clip0_17010_43)">
<path fill-rule="evenodd" clip-rule="evenodd" d="M13.8208 23.439C12.9471 23.7292 12.0126 23.886 11.0421 23.886H11.0413C6.17833 23.886 2.23633 19.944 2.23633 15.081V7.42276H6.15208V5.00174C6.15208 2.30174 8.34058 0.113281 11.0406 0.113281H11.0428C13.7428 0.113281 15.9313 2.30174 15.9313 5.00174V7.42276H19.8471V13.107H18.3471V8.92276H3.73633V15.081C3.73633 19.1153 7.00708 22.386 11.0413 22.386H11.0421C11.7403 22.386 12.4153 22.2885 13.0543 22.1055L13.8208 23.439ZM11.6901 18.885L11.7921 18.7087V16.6958C12.7881 16.3785 13.5096 15.4455 13.5096 14.3438V14.3168C13.5096 12.954 12.4048 11.8492 11.0421 11.8492H11.0413C9.67858 11.8492 8.57383 12.954 8.57383 14.3168V14.3438C8.57383 15.4455 9.29533 16.3785 10.2921 16.6958V18.885H11.6901ZM11.0421 15.3113H11.0413C10.5066 15.3113 10.0738 14.8785 10.0738 14.3438V14.3168C10.0738 13.7828 10.5066 13.3492 11.0413 13.3492H11.0421C11.5768 13.3492 12.0096 13.7828 12.0096 14.3168V14.3438C12.0096 14.8785 11.5768 15.3113 11.0421 15.3113ZM7.65208 5.00174C7.65208 3.13049 9.16933 1.61328 11.0406 1.61328H11.0428C12.9148 1.61328 14.4313 3.13049 14.4313 5.00174V7.42276H7.65208V5.00174Z" fill="url(#paint0_linear_17010_43)"/>
<path d="M21.2775 14.6079H15.8775L13.1775 19.3081L15.8775 24.0076H21.2775L23.9782 19.3081L21.2775 14.6079ZM20.478 22.5076H16.6777L14.7772 19.2077L15.378 18.1074H19.1775L21.0772 21.4074L20.478 22.5076ZM15.978 19.2077L17.2777 21.4074H19.7775L18.5782 19.2077H15.978ZM21.7777 20.3079L19.878 17.0079H15.978L16.5772 15.9076H20.3775L22.2772 19.2077L21.7777 20.3079Z" fill="#4579F0"/>
</g>
<defs>
<linearGradient id="paint0_linear_17010_43" x1="11.0417" y1="0.113281" x2="11.0417" y2="23.886" gradientUnits="userSpaceOnUse">
<stop stop-color="#3057EA"/>
<stop offset="1" stop-color="#65C3D3"/>
</linearGradient>
<clipPath id="clip0_17010_43">
<rect width="24" height="24" fill="white"/>
</clipPath>
</defs>
</svg>
