<?xml version="1.0" encoding="utf-8"?>
<!-- Generator: Adobe Illustrator 24.1.3, SVG Export Plug-In . SVG Version: 6.00 Build 0)  -->
<svg version="1.1" id="Layer_1" xmlns="http://www.w3.org/2000/svg" xmlns:xlink="http://www.w3.org/1999/xlink" x="0px" y="0px"
	 viewBox="0 0 24 24" style="enable-background:new 0 0 24 24;" xml:space="preserve">
<style type="text/css">
	.st0{fill:url(#SVGID_1_);}
	.st1{fill:#4579F0;}
</style>
<linearGradient id="SVGID_1_" gradientUnits="userSpaceOnUse" x1="11.1429" y1="0" x2="11.1429" y2="24">
	<stop  offset="0" style="stop-color:#2E54EB"/>
	<stop  offset="1" style="stop-color:#66C6D2"/>
</linearGradient>
<path class="st0" d="M6.2629,11.25h9.76c3.1066-0.131,5.5188-2.7556,5.3878-5.8622C21.2874,2.4648,18.9459,0.1233,16.0229,0h-9.76
	C3.1563,0.131,0.7441,2.7556,0.8751,5.8622C0.9984,8.7852,3.3399,11.1267,6.2629,11.25z M6.2629,1.5h9.76
	c2.2782,0.1122,4.0341,2.05,3.9218,4.3282c-0.1044,2.1212-1.8006,3.8173-3.9218,3.9218h-9.76
	C3.9847,9.6378,2.2288,7.7,2.3411,5.4218C2.4455,3.3007,4.1417,1.6045,6.2629,1.5z M3.6429,5.63c0-1.4525,1.1775-2.63,2.63-2.63
	s2.63,1.1775,2.63,2.63s-1.1775,2.63-2.63,2.63S3.6429,7.0825,3.6429,5.63z M14.6945,24H6.2629
	c-2.923-0.1233-5.2645-2.4648-5.3878-5.3878c-0.131-3.1066,2.2812-5.7312,5.3878-5.8622h8.407l-0.866,1.5h-7.541
	c-2.1212,0.1045-3.8174,1.8007-3.9218,3.9218C2.2288,20.45,3.9847,22.3878,6.2629,22.5h7.5656L14.6945,24z"/>
<g>
	<polygon class="st1" points="15.9892,18.3324 17.2604,20.5345 19.8031,20.5345 18.5317,18.3324 	"/>
	<path class="st1" d="M21.2478,13.6585h-5.4215l-2.7108,4.6952l2.7108,4.6951h5.4215l2.7108-4.6951L21.2478,13.6585z
		 M20.4388,21.6357h-3.814l-1.9069-3.3033l0.6356-1.1012l-0.0001-0.0001h3.8145l1.9069,3.3034L20.4388,21.6357z M21.7101,19.4331
		L19.8033,16.13h-3.8144l0.636-1.1008h3.8143l1.9069,3.3029h-0.0004L21.7101,19.4331z"/>
</g>
</svg>
