<?xml version="1.0" encoding="utf-8"?>
<!-- Generator: Adobe Illustrator 24.1.3, SVG Export Plug-In . SVG Version: 6.00 Build 0)  -->
<svg version="1.1" id="Layer_1" xmlns="http://www.w3.org/2000/svg" xmlns:xlink="http://www.w3.org/1999/xlink" x="0px" y="0px"
	 viewBox="0 0 24 24" style="enable-background:new 0 0 24 24;" xml:space="preserve">
<style type="text/css">
	.st0{fill:url(#SVGID_1_);}
	.st1{fill:#4579F0;}
</style>
<linearGradient id="SVGID_1_" gradientUnits="userSpaceOnUse" x1="12" y1="0" x2="12" y2="24">
	<stop  offset="0" style="stop-color:#2E54EB"/>
	<stop  offset="1" style="stop-color:#66C6D2"/>
</linearGradient>
<path class="st0" d="M14.1689,24H0V0h24v16.4241l-1.5-2.5981V1.5h-21v21h11.8029L14.1689,24z M10.5,12.75h9.75v-1.5H10.5V12.75z
	 M10.5,6.75h9.75v-1.5H10.5V6.75z M10.5,17.25v1.5h1.2394l0.866-1.5H10.5z M8.25,3.75h-4.5v4.5h4.5V3.75z M3.74,15.75h4.5v4.5h-4.5
	V15.75z M4.87,19.12h2.25v-2.24H4.87V19.12z M8.24,14.25h-4.5v-4.5h4.5V14.25z M7.12,10.88H4.87v2.24h2.25V10.88z"/>
<g>
	<polygon class="st1" points="15.9933,19.2496 17.2644,21.4517 19.8072,21.4517 18.5358,19.2496 	"/>
	<path class="st1" d="M21.2519,14.5758h-5.4215l-2.7108,4.6952l2.7108,4.6951h5.4215l2.7108-4.6951L21.2519,14.5758z
		 M20.4428,22.553h-3.814l-1.9069-3.3033l0.6356-1.1012l-0.0001-0.0001h3.8145l1.9069,3.3034L20.4428,22.553z M21.7142,20.3504
		l-1.9069-3.3031h-3.8144l0.636-1.1008h3.8143l1.9069,3.3029h-0.0004L21.7142,20.3504z"/>
</g>
</svg>
