<svg width="24" height="24" viewBox="0 0 24 24" fill="none" xmlns="http://www.w3.org/2000/svg">
<g clip-path="url(#clip0_19807_5144)">
<mask id="mask0_19807_5144" style="mask-type:luminance" maskUnits="userSpaceOnUse" x="0" y="0" width="24" height="24">
<path d="M23.9971 0H0.162598V24H23.9971V0Z" fill="white"/>
</mask>
<g mask="url(#mask0_19807_5144)">
<path fill-rule="evenodd" clip-rule="evenodd" d="M12.1954 0C15.8914 0.0341935 19.0659 1.69487 21.2269 4.38525L23.871 1.72282V11.9191H13.745L16.9292 8.71273C15.8991 7.09898 14.2332 6.08953 12.1954 6.05143V10.1963L9.01129 6.99007C7.41796 8.02138 6.35001 9.8039 6.30045 11.841H10.4148L7.18752 15.1486C8.22891 16.8302 10.0822 17.9495 12.1952 17.9495C12.2482 17.9495 12.3011 17.9485 12.3538 17.9472L11.5493 19.3568L11.5879 19.4247C9.19422 19.2283 7.12476 17.8823 5.92335 15.9422L5.30266 14.9399L6.86296 13.341H5.31446L1.77847 13.3649V18.4738L3.00838 17.2352L4.04771 18.547C5.95884 20.9588 8.89783 22.5002 12.1952 22.5002C12.5716 22.5002 12.9432 22.4798 13.3092 22.4407L14.111 23.8455C13.4873 23.9472 12.8474 24.0002 12.1952 24.0002L12.0189 23.9988C8.32074 23.9448 5.03095 22.1927 2.88343 19.4827L0.288818 22.0953V11.8752L0.289626 11.875C0.324098 8.15398 2.04207 4.83812 4.71349 2.66243L2.06942 0H12.1954ZM6.93731 2.78043L5.65035 3.82878C3.3239 5.7235 1.82725 8.60047 1.78009 11.8316L4.81161 11.7895C4.87846 9.2417 6.21761 7.01527 8.20584 5.72835L9.21576 5.07455L10.7057 6.57487V1.5H5.66586L6.93731 2.78043ZM12.3546 4.55533C14.85 4.64398 16.9162 5.91845 18.1824 7.9017L18.8315 8.91862L17.3414 10.4191H22.3814V5.34423L21.1097 6.62467L20.0686 5.32862C18.2112 3.01615 15.5154 1.58179 12.3546 1.50293V4.55533Z" fill="url(#paint0_linear_19807_5144)"/>
<path d="M16.0781 19.2827L17.3417 21.4867H19.8689L18.6053 19.2827H16.0781Z" fill="#4579F0"/>
<path d="M15.9163 14.6045L13.2207 19.3034L15.9148 24.0033H21.3022L23.9955 19.3034L21.3022 14.6045H15.9133H15.9163ZM16.708 15.9767H20.5008L22.3966 19.2824L21.7637 20.3844L19.8672 17.0786H16.0751L16.708 15.9767ZM14.8145 19.2833L15.4466 18.1806H19.2373L21.1331 21.4864L20.5002 22.5883H16.7095L14.8138 19.2833H14.8145Z" fill="#4579F0"/>
</g>
</g>
<defs>
<linearGradient id="paint0_linear_19807_5144" x1="12.0799" y1="0" x2="12.0799" y2="24.0002" gradientUnits="userSpaceOnUse">
<stop stop-color="#2E54EB"/>
<stop offset="1" stop-color="#66C6D2"/>
</linearGradient>
<clipPath id="clip0_19807_5144">
<rect width="24" height="24" fill="white"/>
</clipPath>
</defs>
</svg>
