<?xml version="1.0" encoding="utf-8"?>
<!-- Generator: Adobe Illustrator 24.1.3, SVG Export Plug-In . SVG Version: 6.00 Build 0)  -->
<svg version="1.1" id="Layer_1" xmlns="http://www.w3.org/2000/svg" xmlns:xlink="http://www.w3.org/1999/xlink" x="0px" y="0px"
	 viewBox="0 0 24 24" style="enable-background:new 0 0 24 24;" xml:space="preserve">
<style type="text/css">
	.st0{fill:url(#SVGID_1_);}
	.st1{fill:url(#SVGID_2_);}
	.st2{fill:#4579F0;}
</style>
<g>
	<linearGradient id="SVGID_1_" gradientUnits="userSpaceOnUse" x1="12" y1="0.63" x2="12" y2="23.37">
		<stop  offset="0" style="stop-color:#2E54EB"/>
		<stop  offset="1" style="stop-color:#66C6D2"/>
	</linearGradient>
	<polygon class="st0" points="13.634,15.57 7.81,15.57 9.07,8.43 16.19,8.43 15.3563,13.154 16.9393,13.154 17.78,8.39 24,8.43 
		24,6.93 18,6.93 19,0.89 17.57,0.63 16.46,6.93 9.33,6.93 10.4,0.93 8.92,0.63 7.81,6.93 1.52,6.93 1.52,8.43 7.52,8.43 
		6.29,15.57 0,15.57 0,17.07 6,17.07 5,23.11 6.47,23.37 7.58,17.07 12.7679,17.07 	"/>
	<linearGradient id="SVGID_2_" gradientUnits="userSpaceOnUse" x1="13.6463" y1="23.055" x2="13.6463" y2="23.0722">
		<stop  offset="0" style="stop-color:#2E54EB"/>
		<stop  offset="1" style="stop-color:#66C6D2"/>
	</linearGradient>
	<polygon class="st1" points="13.6427,23.055 13.64,23.07 13.6526,23.0722 	"/>
</g>
<g>
	<polygon class="st2" points="16.0322,19.2836 17.3034,21.4857 19.8462,21.4857 18.5747,19.2836 	"/>
	<path class="st2" d="M21.2909,14.6098h-5.4215l-2.7108,4.6952l2.7108,4.6951h5.4215l2.7108-4.6951L21.2909,14.6098z
		 M20.4818,22.587h-3.814l-1.9069-3.3033l0.6356-1.1012l-0.0001-0.0001h3.8145l1.9069,3.3034L20.4818,22.587z M21.7531,20.3844
		l-1.9069-3.3031h-3.8144l0.636-1.1008h3.8143l1.9069,3.3029h-0.0004L21.7531,20.3844z"/>
</g>
</svg>
