<svg width="24" height="24" viewBox="0 0 24 24" fill="none" xmlns="http://www.w3.org/2000/svg">
<g clip-path="url(#clip0_21358_3561)">
<mask id="mask0_21358_3561" style="mask-type:luminance" maskUnits="userSpaceOnUse" x="0" y="0" width="24" height="24">
<path d="M24 0H0V24H24V0Z" fill="white"/>
</mask>
<g mask="url(#mask0_21358_3561)">
<path d="M4.84001 6.63086H1.50732V17.1312H12.6411L11.7796 18.6312H0.00732422V5.13086H4.84001V6.63086Z" fill="url(#paint0_linear_21358_3561)"/>
<path d="M24 16.1693L22.5977 13.7275L22.5 13.5579V6.63086H19.208V5.13086H24V16.1693Z" fill="url(#paint1_linear_21358_3561)"/>
<path d="M12.7505 10.606H11.2505V9.2251H12.7505V10.606Z" fill="url(#paint2_linear_21358_3561)"/>
<path d="M12.7505 8.2832H11.2505V4.80957H12.7505V8.2832Z" fill="url(#paint3_linear_21358_3561)"/>
<path fill-rule="evenodd" clip-rule="evenodd" d="M19.435 12.8773H4.56592L12.0003 0L19.435 12.8773ZM7.1639 11.3773H16.837L12.0003 2.99983L7.1639 11.3773Z" fill="url(#paint4_linear_21358_3561)"/>
<path d="M16.0234 19.2734L17.2948 21.4754H19.8373L18.5661 19.2734H16.0234Z" fill="#4579F0"/>
<path d="M15.861 14.5991L13.1504 19.2942L15.861 23.9893H21.2829L23.9934 19.2942L21.2829 14.5991H15.861ZM16.6597 15.9694H20.4744L22.3801 19.2732L21.7449 20.3743L19.8376 17.0705H16.0237L16.6597 15.9694ZM14.7517 19.2732L15.3877 18.1722H19.2022L21.1096 21.4745L20.4736 22.5763H16.6597L14.7517 19.2732Z" fill="#4579F0"/>
</g>
</g>
<defs>
<linearGradient id="paint0_linear_21358_3561" x1="12.0037" y1="-0.000157303" x2="12.0037" y2="18.6312" gradientUnits="userSpaceOnUse">
<stop stop-color="#3B57F7"/>
<stop offset="1" stop-color="#5CD0DA"/>
</linearGradient>
<linearGradient id="paint1_linear_21358_3561" x1="12.0036" y1="-0.000157232" x2="12.0036" y2="18.6312" gradientUnits="userSpaceOnUse">
<stop stop-color="#3B57F7"/>
<stop offset="1" stop-color="#5CD0DA"/>
</linearGradient>
<linearGradient id="paint2_linear_21358_3561" x1="12.0039" y1="0.000166349" x2="12.0039" y2="18.6315" gradientUnits="userSpaceOnUse">
<stop stop-color="#3B57F7"/>
<stop offset="1" stop-color="#5CD0DA"/>
</linearGradient>
<linearGradient id="paint3_linear_21358_3561" x1="12.0039" y1="-0.00016254" x2="12.0039" y2="18.6312" gradientUnits="userSpaceOnUse">
<stop stop-color="#3B57F7"/>
<stop offset="1" stop-color="#5CD0DA"/>
</linearGradient>
<linearGradient id="paint4_linear_21358_3561" x1="12.0038" y1="0" x2="12.0038" y2="18.6313" gradientUnits="userSpaceOnUse">
<stop stop-color="#3B57F7"/>
<stop offset="1" stop-color="#5CD0DA"/>
</linearGradient>
<clipPath id="clip0_21358_3561">
<rect width="24" height="24" fill="white"/>
</clipPath>
</defs>
</svg>
