<?xml version="1.0" encoding="utf-8"?>
<!-- Generator: Adobe Illustrator 24.1.3, SVG Export Plug-In . SVG Version: 6.00 Build 0)  -->
<svg version="1.1" id="Layer_1" xmlns="http://www.w3.org/2000/svg" xmlns:xlink="http://www.w3.org/1999/xlink" x="0px" y="0px"
	 viewBox="0 0 24 24" style="enable-background:new 0 0 24 24;" xml:space="preserve">
<style type="text/css">
	.st0{fill:url(#SVGID_1_);}
	.st1{fill:#4579F0;}
</style>
<linearGradient id="SVGID_1_" gradientUnits="userSpaceOnUse" x1="11.6406" y1="2.1354" x2="11.6406" y2="14.8962">
	<stop  offset="0" style="stop-color:#2E54EB"/>
	<stop  offset="1" style="stop-color:#66C6D2"/>
</linearGradient>
<path class="st0" d="M9.0202,4.6662l-1.47-0.9301c0.3486-0.5089,0.8291-0.9133,1.39-1.17c0.6265-0.29,1.3097-0.4369,2-0.43
	c0.5761-0.0109,1.1483,0.0981,1.68,0.32c0.4478,0.1838,0.8355,0.4885,1.12,0.88c0.2659,0.3991,0.402,0.8706,0.39,1.35
	c0.0035,0.453-0.0956,0.9008-0.29,1.31c-0.297,0.5286-0.6826,1.0021-1.14,1.4l-2,1.86h3.74v1.62H7.9503v-1.29l3.31-3.13
	c0.3002-0.2415,0.5573-0.5323,0.76-0.86c0.1156-0.2226,0.1772-0.4692,0.18-0.72c0.0202-0.3048-0.1107-0.6001-0.35-0.79
	c-0.2938-0.1999-0.6451-0.2982-1-0.28c-0.3453,0.0002-0.6864,0.0753-1,0.22C9.5216,4.1619,9.2351,4.3828,9.0202,4.6662z
	 M13.6342,13.3962H0.0202v1.5h12.7479L13.6342,13.3962z M20.8102,9.0561c-0.3566,0.2098-0.7667,0.3105-1.1799,0.29
	c-0.4475-0.0013-0.8923-0.0687-1.3201-0.2c-0.4075-0.1288-0.7924-0.3212-1.1399-0.57l-0.77,1.52
	c0.4536,0.311,0.9577,0.5411,1.49,0.68c0.5833,0.1595,1.1853,0.2403,1.79,0.24c0.6865,0.0216,1.3693-0.1081,2-0.38
	c0.4834-0.2139,0.8961-0.5607,1.19-1c0.2571-0.4178,0.3922-0.8994,0.39-1.39c0.016-0.5971-0.1989-1.1774-0.6-1.62
	c-0.4614-0.4727-1.0732-0.7697-1.73-0.84l1.9301-2.21v-1.29h-6v1.6h3.63l-1.77,2v1.3h0.91c1.07,0,1.6,0.35,1.6,1.05
	C21.245,8.5645,21.0854,8.8763,20.8102,9.0561z M2.4803,10.8761L2.4803,10.8761h2.0001v-8.59H0.7702v1.59h1.71V10.8761z"/>
<g>
	<polygon class="st1" points="16.0103,17.1481 17.2815,19.3502 19.8242,19.3502 18.5528,17.1481 	"/>
	<path class="st1" d="M21.269,12.4743h-5.4215l-2.7108,4.6952l2.7108,4.6951h5.4215l2.7108-4.6951L21.269,12.4743z M20.4599,20.4514
		h-3.814l-1.9069-3.3033l0.6356-1.1012l-0.0001-0.0001h3.8145l1.9069,3.3034L20.4599,20.4514z M21.7312,18.2489l-1.9069-3.3031
		H16.01l0.636-1.1008h3.8143l1.9069,3.3029h-0.0004L21.7312,18.2489z"/>
</g>
</svg>
