<svg width="24" height="24" viewBox="0 0 24 24" fill="none" xmlns="http://www.w3.org/2000/svg">
<g clip-path="url(#clip0_10325_3938)">
<path d="M8.25 8.25H3.75V3.75H8.25V8.25ZM8.25 9.75H3.75V14.25H8.25V9.75ZM3.75 15.75H8.25V20.25H3.75V15.75ZM4.875 19.125H7.125V16.875H4.875V19.125ZM10.5003 6.75005H20.2503V5.25005H10.5003V6.75005ZM10.5003 12.75H20.2503V11.25H10.5003V12.75ZM10.5003 18.75H11.725L11.8613 18.5129L12.5867 17.25H10.5003V18.75ZM0 0V24H14.155L13.2933 22.5H1.5V1.5H22.5V13.7038L22.5627 13.8129L24 16.3149V0H0Z" fill="url(#paint0_linear_10325_3938)"/>
<path d="M15.9927 19.2495L17.2639 21.4515H19.8066L18.5352 19.2495H15.9927Z" fill="#FF808B"/>
<path d="M21.2512 14.5756H15.8297L13.1189 19.2708L15.8297 23.9659H21.2512L23.962 19.2708L21.2512 14.5756ZM20.4422 22.5528H16.6282L14.7213 19.2495L15.3569 18.1483L19.1713 18.1482L21.0782 21.4516L20.4422 22.5528ZM21.7135 20.3502L19.8066 17.0471H15.9922L16.6282 15.9463H20.4425L22.3494 19.2492L21.7135 20.3502Z" fill="#FF808B"/>
</g>
<defs>
<linearGradient id="paint0_linear_10325_3938" x1="12" y1="0" x2="12" y2="24" gradientUnits="userSpaceOnUse">
<stop stop-color="#2E54EB"/>
<stop offset="1" stop-color="#66C6D2"/>
</linearGradient>
<clipPath id="clip0_10325_3938">
<rect width="24" height="24" fill="white"/>
</clipPath>
</defs>
</svg>
