<?xml version="1.0" encoding="utf-8"?>
<!-- Generator: Adobe Illustrator 24.1.3, SVG Export Plug-In . SVG Version: 6.00 Build 0)  -->
<svg version="1.1" id="Layer_1" xmlns="http://www.w3.org/2000/svg" xmlns:xlink="http://www.w3.org/1999/xlink" x="0px" y="0px"
	 viewBox="0 0 24 24" style="enable-background:new 0 0 24 24;" xml:space="preserve">
<style type="text/css">
	.st0{fill:url(#SVGID_1_);}
	.st1{fill:#4579F0;}
</style>
<linearGradient id="SVGID_1_" gradientUnits="userSpaceOnUse" x1="12.0019" y1="0" x2="12.0019" y2="24">
	<stop  offset="0" style="stop-color:#2E54EB"/>
	<stop  offset="1" style="stop-color:#66C6D2"/>
</linearGradient>
<path class="st0" d="M16.248,13.1506c0.1567-0.8225,0.4464-1.642,0.652-2.3806C17,10.52,17.94,7,18,7l-1.48-0.55
	c-0.13,0.34-0.25,0.7-0.36,1.06C15.363,6.4483,14.0718,5.8766,12.75,6c-0.6498-0.0057-1.2969,0.0853-1.92,0.27
	C9.0154,6.9095,7.5767,8.319,6.9,10.12C6.06,12.03,5.24,14.7,6.66,16.51c1.0399,1.136,2.5591,1.7081,4.09,1.54
	c0.5508-0.0028,1.0845-0.1088,1.588-0.2897l2.6615-4.6097H16.248z M10.7,16.59c-1.066,0.1304-2.1326-0.2386-2.89-1
	C6.88,14.36,7.55,12.6,8,11.36c0.3304-1.0222,0.8995-1.9512,1.66-2.71c0.8448-0.7649,1.9508-1.1765,3.09-1.15
	c0.8228-0.0737,1.6274,0.2722,2.14,0.92c0.428,0.9445,0.4852,2.0154,0.16,3C14.07,14.59,13.02,16.59,10.7,16.59z M14.0482,23.8049
	C13.3742,23.9282,12.6904,23.9997,12,24C5.3726,24,0,18.6274,0,12S5.3726,0,12,0s12,5.3726,12,12
	c0.0399,1.1218-0.2406,2.1953-0.7433,3.1508l-0.9374-1.6236C22.4553,13.0369,22.5294,12.5257,22.5,12
	C22.4948,6.2065,17.794,1.5142,12.0005,1.5195C6.207,1.5247,1.5148,6.2255,1.52,12.019s4.706,10.4857,10.4995,10.4805
	c0.4117-0.0004,0.8201-0.0337,1.2258-0.0853L14.0482,23.8049z"/>
<g>
	<polygon class="st1" points="16.0028,19.2802 17.274,21.4823 19.8167,21.4823 18.5453,19.2802 	"/>
	<path class="st1" d="M21.2614,14.6064h-5.4215l-2.7108,4.6952l2.7108,4.6951h5.4215l2.7108-4.6951L21.2614,14.6064z
		 M20.4524,22.5835h-3.814l-1.9069-3.3033l0.6356-1.1012l-0.0001-0.0001h3.8145l1.9069,3.3034L20.4524,22.5835z M21.7237,20.381
		l-1.9069-3.3031h-3.8144l0.636-1.1008h3.8143l1.9069,3.3029h-0.0004L21.7237,20.381z"/>
</g>
</svg>
