<?xml version="1.0" encoding="utf-8"?>
<!-- Generator: Adobe Illustrator 24.1.3, SVG Export Plug-In . SVG Version: 6.00 Build 0)  -->
<svg version="1.1" id="Layer_1" xmlns="http://www.w3.org/2000/svg" xmlns:xlink="http://www.w3.org/1999/xlink" x="0px" y="0px"
	 viewBox="0 0 24 24" style="enable-background:new 0 0 24 24;" xml:space="preserve">
<style type="text/css">
	.st0{fill:url(#SVGID_1_);}
	.st1{fill:#4579F0;}
</style>
<linearGradient id="SVGID_1_" gradientUnits="userSpaceOnUse" x1="11.6559" y1="0.0377" x2="11.6559" y2="23.2881">
	<stop  offset="0" style="stop-color:#2E54EB"/>
	<stop  offset="1" style="stop-color:#66C6D2"/>
</linearGradient>
<path class="st0" d="M6.2309,10.2098H17.081V5.8503H6.2309V10.2098z M7.684,7.3035h7.9438v1.4531H7.684V7.3035z M6.2309,11.663
	H17.081v1.4531h-1.4531h-2.575H7.684v1.4532h4.53l-0.839,1.4531H6.2309V11.663z M6.2309,17.4755h4.3052l-1.0344,1.7916
	l0.6436,1.1147H6.2309V17.4755z M10.9843,21.835H4.0027V4.3972h15.3065v8.7189h0.8463l0.6069,1.0511V0.0377H2.5495v23.2504h9.2737
	L10.9843,21.835z M4.0027,1.4909h15.3065V2.944H4.0027V1.4909z"/>
<g>
	<polygon class="st1" points="14.0564,19.2457 15.3275,21.4478 17.8703,21.4478 16.5989,19.2457 	"/>
	<path class="st1" d="M19.315,14.5719h-5.4215l-2.7108,4.6952l2.7108,4.6951h5.4215l2.7108-4.6951L19.315,14.5719z M18.5059,22.5491
		h-3.814l-1.9069-3.3033l0.6356-1.1012l-0.0001-0.0001h3.8145l1.9069,3.3034L18.5059,22.5491z M19.7773,20.3465l-1.9069-3.3031
		H14.056l0.636-1.1008h3.8143l1.9069,3.3029h-0.0004L19.7773,20.3465z"/>
</g>
</svg>
